# xmcd
#
# Track frame offsets:
#	150
#	15789
#	25934
#	41680
#	59655
#	73332
#	93872
#	106648
#	126995
#	141022
#	156953
#	174460
#	190313
#	205484
#	222895
#	236107
#	249950
#	259437
#
# Disc length: 3684 seconds
#
# Revision: 0
# Processed by: cddbd v1.5.2PL0 Copyright (c) Steve Scherf et al.
# Submitted via: audiograbber 1.83.01
#
DISCID=050e6212
DTITLE=Maria Lataretu - Muzica De Colectie
DYEAR=2007
DGENRE=Populara
TTITLE0=Mai tii minte mai draga Marie
TTITLE1=Sanie cu zurgalai
TTITLE2=Doina olteneasca
TTITLE3=Dor de mama 
TTITLE4=Pe campul cu florile
TTITLE5=Fir-ai tu sa fii de fata
TTITLE6=Cine trece campul mare
TTITLE7=Plange frunza si iarba
TTITLE8=Hei luna
TTITLE9=Lie ciocarlie
TTITLE10=Dunare cu valuri line
TTITLE11=As ofta sa-mi iasa focul
TTITLE12=Radu mamii Radule
TTITLE13=Nu vine neica nu vine
TTITLE14=Dulce-i dragostea pe fan cosit
TTITLE15=Au pornit olteni la coasa
TTITLE16=Joaca hora-n poienita
TTITLE17=Va las cantecele mele
EXTD=
EXTT0=
EXTT1=
EXTT2=
EXTT3=
EXTT4=
EXTT5=
EXTT6=
EXTT7=
EXTT8=
EXTT9=
EXTT10=
EXTT11=
EXTT12=
EXTT13=
EXTT14=
EXTT15=
EXTT16=
EXTT17=
PLAYORDER=
